# xmcd CD database file
#
# Track frame offsets:
#	150
#	12361
#	27604
#	40395
#	54582
#	67512
#	81093
#	98622
#	111722
#	123934
#	134691
#	144236
#	157309
#	169147
#	183381
#
# Disc length: 2831 seconds
#
# Revision: 0
# Processed by: cddbd v1.5.2PL0 Copyright (c) Steve Scherf et al.
# Submitted via: CDex 1.51
#
DISCID=d20b0d0f
DTITLE=Various Artist - So Jazz 2
DYEAR=2007
DGENRE=Jazz
TTITLE0=Charlie Parker - Half Nelson
TTITLE1=Ella Fitzerald - The Lady is a tramp
TTITLE2=Chet Baker - The Thrill Is Gone
TTITLE3=Louis Armstrong and Louis Jordan - You Rascal You
TTITLE4=Benny Carter - I Get A Kick Out Of You
TTITLE5=Dexter Gordon - If I HAd You
TTITLE6=Claude Luter - Nuages
TTITLE7=Dizzy Gillespie - Caravan
TTITLE8=Art Tatum - The Sheik Of Araby
TTITLE9=Peggy Lee - Swing Low Sweet Chariot
TTITLE10=Buddy Rich - On A Slow Boat To China
TTITLE11=Dinah Washington - Embraceable You
TTITLE12=Lester Young  - One O'Clock Jump
TTITLE13=Billy Eckstine - You're Driving Me Crazy
TTITLE14=Dave Brubeck - Pennies From Heaven
EXTD=YEAR: 2007
EXTT0=
EXTT1=
EXTT2=
EXTT3=
EXTT4=
EXTT5=
EXTT6=
EXTT7=
EXTT8=
EXTT9=
EXTT10=
EXTT11=
EXTT12=
EXTT13=
EXTT14=
PLAYORDER=
